<svg id="Group_3752" data-name="Group 3752" xmlns="http://www.w3.org/2000/svg" width="28.581" height="35" viewBox="0 0 28.581 35">
  <path id="Path" d="M18.912,9.26a9.326,9.326,0,0,1-9.456,9.26A9.327,9.327,0,0,1,0,9.26,9.327,9.327,0,0,1,9.456,0,9.326,9.326,0,0,1,18.912,9.26Z" transform="translate(4.834 0)" fill="#d67509"/>
  <path id="Path-2" data-name="Path" d="M0,5.949C0,1.191,6.583,0,14.29,0c7.749,0,14.29,1.232,14.29,5.994S22,11.943,14.29,11.943C6.541,11.943,0,10.712,0,5.949Z" transform="translate(0 23.057)" fill="#d67509"/>
</svg>
